<svg width="394" height="298" viewBox="0 0 394 298" fill="none" xmlns="http://www.w3.org/2000/svg">
<g clip-path="url(#clip0_23_2)">
<path d="M31.2188 228.391H363.25C368.534 228.391 373.601 230.49 377.337 234.226C381.073 237.962 383.172 243.029 383.172 248.312C383.172 253.596 381.073 258.663 377.337 262.399C373.601 266.135 368.534 268.234 363.25 268.234H31.2188C28.6026 268.234 26.012 267.719 23.595 266.718C21.1779 265.717 18.9818 264.249 17.1319 262.399C15.2819 260.549 13.8145 258.353 12.8133 255.936C11.8122 253.519 11.2969 250.929 11.2969 248.312C11.2969 245.696 11.8122 243.106 12.8133 240.689C13.8145 238.272 15.2819 236.076 17.1319 234.226C18.9818 232.376 21.1779 230.908 23.595 229.907C26.012 228.906 28.6026 228.391 31.2188 228.391Z" fill="#FDDE2E"/>
<path d="M58.0469 80.0391L93.9062 34.6172C94.7535 33.5879 95.8181 32.759 97.0237 32.19C98.2292 31.6209 99.5458 31.3257 100.879 31.3257C102.212 31.3257 103.529 31.6209 104.734 32.19C105.94 32.759 107.004 33.5879 107.852 34.6172C113.43 41.789 121.133 52.0156 128.703 61.1797C133.445 67.1961 139.501 72.0476 146.407 75.3625C153.313 78.6775 160.887 80.368 168.547 80.3047H227.25C234.907 80.3483 242.474 78.649 249.377 75.3355C256.28 72.022 262.338 67.1812 267.094 61.1797L287.945 34.6172C288.78 33.6813 289.803 32.9325 290.948 32.4197C292.092 31.907 293.332 31.6419 294.586 31.6419C295.84 31.6419 297.08 31.907 298.224 32.4197C299.369 32.9325 300.392 33.6813 301.227 34.6172L337.219 80.0391L277.188 185.359L124.852 187.617L58.0469 80.0391Z" fill="#FDDE2E"/>
<path d="M14.0859 57.4609C13.9061 55.6362 14.2944 53.8004 15.1977 52.2047C16.1009 50.609 17.4751 49.3313 19.1322 48.5464C20.7893 47.7615 22.6484 47.5076 24.4553 47.8195C26.2621 48.1315 27.9285 48.994 29.2266 50.2891L89.6562 112.578C91.5781 114.587 93.8869 116.186 96.4434 117.278C98.9999 118.37 101.751 118.933 104.531 118.933C107.311 118.933 110.063 118.37 112.619 117.278C115.176 116.186 117.484 114.587 119.406 112.578L191.125 38.6016C191.971 37.684 192.997 36.9517 194.14 36.4507C195.283 35.9498 196.518 35.6912 197.766 35.6912C199.013 35.6912 200.248 35.9498 201.391 36.4507C202.534 36.9517 203.56 37.684 204.406 38.6016L276.125 112.578C278.047 114.587 280.356 116.186 282.912 117.278C285.469 118.37 288.22 118.933 291 118.933C293.78 118.933 296.531 118.37 299.088 117.278C301.644 116.186 303.953 114.587 305.875 112.578L366.305 50.2891C367.589 48.9748 369.249 48.0904 371.056 47.7575C372.864 47.4245 374.73 47.6594 376.398 48.4297C378.063 49.2367 379.441 50.5358 380.343 52.151C381.246 53.7663 381.631 55.6199 381.445 57.4609L363.781 228.391H31.75L14.0859 57.4609Z" fill="#FCE87B"/>
<path fill-rule="evenodd" clip-rule="evenodd" d="M204.141 166.367C203.289 167.269 202.259 167.983 201.115 168.464C199.972 168.944 198.74 169.18 197.5 169.156C196.242 169.167 194.995 168.925 193.831 168.446C192.668 167.967 191.612 167.26 190.727 166.367L163.5 139.805C161.748 138.039 160.765 135.652 160.765 133.164C160.765 130.676 161.748 128.29 163.5 126.523L190.727 99.2968C191.601 98.3796 192.652 97.6481 193.816 97.1461C194.979 96.644 196.233 96.3818 197.5 96.375C198.74 96.3514 199.972 96.5873 201.115 97.0676C202.259 97.5479 203.289 98.262 204.141 99.164L231.5 126.391C233.252 128.157 234.235 130.544 234.235 133.031C234.235 135.519 233.252 137.906 231.5 139.672L204.141 166.367Z" fill="#F1ECF0"/>
<path d="M72.789 191.867C72.595 189.87 71.8023 187.978 70.5147 186.439C69.2271 184.9 67.5047 183.785 65.5731 183.242C63.6414 182.698 61.5907 182.751 59.6894 183.392C57.7881 184.034 56.125 185.235 54.9178 186.838C53.7107 188.441 53.0158 190.371 52.9242 192.376C52.8326 194.38 53.3486 196.366 54.4046 198.072C55.4605 199.778 57.0072 201.126 58.8421 201.938C60.6769 202.751 62.7143 202.99 64.6875 202.625C65.9886 202.446 67.2414 202.011 68.3738 201.346C69.5063 200.681 70.496 199.798 71.286 198.749C72.076 197.699 72.6507 196.504 72.977 195.232C73.3034 193.96 73.3749 192.636 73.1875 191.336" fill="#FDDE2E"/>
<path d="M67.6094 155.344C67.3287 153.396 66.4776 151.576 65.1635 150.112C63.8494 148.648 62.1311 147.605 60.2254 147.116C58.3197 146.628 56.3119 146.714 54.4552 147.365C52.5986 148.016 50.9763 149.202 49.7929 150.773C48.6095 152.345 47.918 154.232 47.8057 156.196C47.6934 158.161 48.1652 160.114 49.1617 161.81C50.1583 163.507 51.6348 164.87 53.4052 165.728C55.1755 166.586 57.1604 166.901 59.1094 166.633C60.4105 166.454 61.6633 166.019 62.7957 165.354C63.9282 164.688 64.9179 163.806 65.7079 162.757C66.4979 161.707 67.0726 160.512 67.3989 159.24C67.7253 157.968 67.7968 156.644 67.6094 155.344Z" fill="#FDDE2E"/>
<path d="M62.4297 118.687C62.1612 116.03 60.8502 113.587 58.784 111.894C56.7177 110.201 54.0647 109.397 51.4063 109.656C48.8026 110.05 46.4608 111.458 44.8929 113.574C43.3249 115.689 42.6584 118.34 43.0391 120.945C43.1845 122.248 43.5926 123.508 44.2389 124.649C44.8851 125.79 45.7559 126.787 46.7988 127.582C47.8416 128.376 49.0348 128.951 50.3061 129.272C51.5774 129.592 52.9005 129.651 54.1953 129.445C55.4964 129.266 56.7492 128.831 57.8817 128.166C59.0141 127.501 60.0038 126.618 60.7938 125.569C61.5838 124.52 62.1585 123.325 62.4849 122.052C62.8112 120.78 62.8827 119.456 62.6953 118.156L62.4297 118.687Z" fill="#FDDE2E"/>
<path d="M322.211 191.867C322.405 189.87 323.198 187.978 324.485 186.439C325.773 184.9 327.495 183.785 329.427 183.242C331.359 182.698 333.409 182.751 335.311 183.392C337.212 184.034 338.875 185.235 340.082 186.838C341.289 188.441 341.984 190.371 342.076 192.376C342.167 194.38 341.651 196.366 340.595 198.072C339.539 199.778 337.993 201.126 336.158 201.938C334.323 202.751 332.286 202.99 330.313 202.625C329.011 202.446 327.759 202.011 326.626 201.346C325.494 200.681 324.504 199.798 323.714 198.749C322.924 197.699 322.349 196.504 322.023 195.232C321.697 193.96 321.625 192.636 321.813 191.336" fill="#FDDE2E"/>
<path d="M327.391 155.344C327.671 153.396 328.522 151.576 329.837 150.112C331.151 148.648 332.869 147.605 334.775 147.116C336.68 146.628 338.688 146.714 340.545 147.365C342.401 148.016 344.024 149.202 345.207 150.773C346.391 152.345 347.082 154.232 347.194 156.196C347.307 158.161 346.835 160.114 345.838 161.81C344.842 163.507 343.365 164.87 341.595 165.728C339.825 166.586 337.84 166.901 335.891 166.633C334.59 166.454 333.337 166.019 332.204 165.354C331.072 164.688 330.082 163.806 329.292 162.757C328.502 161.707 327.927 160.512 327.601 159.24C327.275 157.968 327.203 156.644 327.391 155.344Z" fill="#FDDE2E"/>
<path d="M332.57 118.687C332.65 117.312 333.014 115.968 333.64 114.74C334.265 113.513 335.139 112.428 336.205 111.556C337.271 110.683 338.507 110.041 339.833 109.67C341.16 109.299 342.55 109.208 343.914 109.401C345.278 109.595 346.587 110.069 347.759 110.795C348.93 111.52 349.938 112.48 350.719 113.615C351.501 114.75 352.038 116.035 352.297 117.388C352.557 118.741 352.533 120.133 352.227 121.477C352.147 122.852 351.783 124.196 351.157 125.424C350.532 126.651 349.658 127.735 348.592 128.608C347.526 129.481 346.29 130.123 344.963 130.494C343.636 130.865 342.247 130.956 340.883 130.763C339.519 130.569 338.21 130.095 337.038 129.369C335.867 128.644 334.859 127.684 334.078 126.549C333.296 125.414 332.759 124.129 332.5 122.776C332.24 121.423 332.264 120.031 332.57 118.687Z" fill="#FDDE2E"/>
<path d="M210.264 95.3636V219H195.293V111.06H194.568L164.384 131.102V115.889L195.293 95.3636H210.264Z" fill="#FF0000"/>
</g>
<defs>
<clipPath id="clip0_23_2">
<rect width="394" height="298" fill="white"/>
</clipPath>
</defs>
</svg>
